<svg t="1748571154914" class="icon" viewBox="0 0 1489 1024" version="1.1" xmlns="http://www.w3.org/2000/svg" p-id="1786" width="200" height="200"><path d="M0 814.545455a744.727273 162.909091 0 1 0 1489.454545 0 744.727273 162.909091 0 1 0-1489.454545 0Z" fill="#F5F5F5" p-id="1787"></path><path d="M1291.636364 339.130182L1052.625455 68.119273C1040.290909 48.034909 1020.136727 34.909091 998.539636 34.909091H490.891636c-21.597091 0-41.751273 13.125818-55.202909 34.746182L200.727273 335.825455l-2.909091 3.304727V570.181818h1093.818182v-231.051636z m-23.272728 8.773818V546.909091h-1047.272727v-198.981818L454.283636 83.502545c10.658909-16.802909 23.738182-25.320727 36.608-25.320727h507.671273c12.869818 0 25.972364 8.517818 35.444364 23.761455L1268.363636 347.927273z" fill="#D9D9D9" p-id="1788"></path><path d="M968.448 417.303273c0-37.352727 23.133091-68.189091 51.828364-68.212364H1280v422.097455C1280 820.596364 1249.28 861.090909 1211.345455 861.090909h-933.236364C240.174545 861.090909 209.454545 820.573091 209.454545 771.188364V349.090909h259.723637c28.695273 0 51.828364 30.789818 51.828363 68.142546v0.512c0 37.352727 23.389091 67.514182 52.061091 67.514181h343.319273c28.672 0 52.061091-30.440727 52.061091-67.793454v-0.139637z" fill="#FAFAFA" p-id="1789"></path><path d="M956.811636 417.303273c0-43.333818 27.624727-79.825455 63.464728-79.848728H1291.636364v433.733819c0 55.319273-35.211636 101.538909-80.290909 101.538909h-933.236364c-45.079273 0-80.290909-46.219636-80.290909-101.538909V337.454545h271.36c35.84 0 63.464727 36.468364 63.464727 79.77891v0.512c0 31.418182 18.874182 55.877818 40.424727 55.877818h343.319273c21.480727 0 40.424727-24.669091 40.424727-56.157091v-0.139637zM1268.363636 360.727273H1020.276364c-21.341091 0-40.192 24.901818-40.192 56.576v0.162909c0 43.217455-27.810909 79.429818-63.697455 79.429818H573.067636c-35.909818 0-63.697455-35.979636-63.697454-79.150545v-0.512c0-31.650909-18.850909-56.506182-40.192-56.506182H221.090909v410.461091c0 43.636364 26.391273 78.266182 57.018182 78.266181h933.236364c30.626909 0 57.018182-34.629818 57.018181-78.266181V360.727273z" fill="#D9D9D9" p-id="1790"></path></svg>